<svg xmlns="http://www.w3.org/2000/svg" xmlns:xlink="http://www.w3.org/1999/xlink" contentStyleType="text/css" height="356px" preserveAspectRatio="none" style="width:179px;height:356px;background:#1B1B1B;" version="1.1" viewBox="0 0 179 356" width="179px" zoomAndPan="magnify"><defs/><g><rect fill="#1B1B1B" height="356" style="stroke:none;stroke-width:1;" width="179" x="0" y="0"/><!--cluster System--><g id="cluster_System"><path d="M8.5,6 L67.8174,6 A3.75,3.75 0 0 1 70.3174,8.5 L77.3174,28.2969 L169.5,28.2969 A2.5,2.5 0 0 1 172,30.7969 L172,347.39 A2.5,2.5 0 0 1 169.5,349.89 L8.5,349.89 A2.5,2.5 0 0 1 6,347.39 L6,8.5 A2.5,2.5 0 0 1 8.5,6 " fill="none" style="stroke:#FFFFFF;stroke-width:1.5;"/><line style="stroke:#FFFFFF;stroke-width:1.5;" x1="6" x2="77.3174" y1="28.2969" y2="28.2969"/><text fill="#FFFFFF" font-family="sans-serif" font-size="14" font-weight="bold" lengthAdjust="spacing" textLength="58.3174" x="10" y="20.9951">System</text></g><!--entity Frontend--><a href="#frontend" target="_top" title="#frontend" xlink:actuate="onRequest" xlink:href="#frontend" xlink:show="new" xlink:title="#frontend" xlink:type="simple"><rect fill="#313139" height="46.2969" rx="2.5" ry="2.5" style="stroke:#E7E7E7;stroke-width:0.5;" width="103.1094" x="22.45" y="41"/><rect fill="#313139" height="10" style="stroke:#E7E7E7;stroke-width:0.5;" width="15" x="105.5594" y="46"/><rect fill="#313139" height="2" style="stroke:#E7E7E7;stroke-width:0.5;" width="4" x="103.5594" y="48"/><rect fill="#313139" height="2" style="stroke:#E7E7E7;stroke-width:0.5;" width="4" x="103.5594" y="52"/><text fill="#FFFFFF" font-family="sans-serif" font-size="14" lengthAdjust="spacing" textLength="63.1094" x="37.45" y="73.9951">Frontend</text></a><!--entity Backend--><a href="#backend" target="_top" title="#backend" xlink:actuate="onRequest" xlink:href="#backend" xlink:show="new" xlink:title="#backend" xlink:type="simple"><rect fill="#313139" height="46.2969" rx="2.5" ry="2.5" style="stroke:#E7E7E7;stroke-width:0.5;" width="100.3613" x="21.82" y="164.3"/><rect fill="#313139" height="10" style="stroke:#E7E7E7;stroke-width:0.5;" width="15" x="102.1813" y="169.3"/><rect fill="#313139" height="2" style="stroke:#E7E7E7;stroke-width:0.5;" width="4" x="100.1813" y="171.3"/><rect fill="#313139" height="2" style="stroke:#E7E7E7;stroke-width:0.5;" width="4" x="100.1813" y="175.3"/><text fill="#FFFFFF" font-family="sans-serif" font-size="14" lengthAdjust="spacing" textLength="60.3613" x="36.82" y="197.2951">Backend</text></a><!--entity Database--><a href="#database" target="_top" title="#database" xlink:actuate="onRequest" xlink:href="#database" xlink:show="new" xlink:title="#database" xlink:type="simple"><rect fill="#313139" height="46.2969" rx="2.5" ry="2.5" style="stroke:#E7E7E7;stroke-width:0.5;" width="106.8008" x="21.6" y="287.59"/><rect fill="#313139" height="10" style="stroke:#E7E7E7;stroke-width:0.5;" width="15" x="108.4008" y="292.59"/><rect fill="#313139" height="2" style="stroke:#E7E7E7;stroke-width:0.5;" width="4" x="106.4008" y="294.59"/><rect fill="#313139" height="2" style="stroke:#E7E7E7;stroke-width:0.5;" width="4" x="106.4008" y="298.59"/><text fill="#FFFFFF" font-family="sans-serif" font-size="14" lengthAdjust="spacing" textLength="66.8008" x="36.6" y="320.5851">Database</text></a><!--link Frontend to Backend--><g id="link_Frontend_Backend"><path d="M73.63,87.68 C73.27,109.47 72.8293,136.2908 72.4693,158.0308 " fill="none" id="Frontend-to-Backend" style="stroke:#E7E7E7;stroke-width:1;"/><polygon fill="#E7E7E7" points="72.37,164.03,76.5185,155.0975,72.4528,159.0307,68.5196,154.965,72.37,164.03" style="stroke:#E7E7E7;stroke-width:1;"/><text fill="#FFFFFF" font-family="sans-serif" font-size="13" lengthAdjust="spacing" textLength="97.0366" x="74" y="130.3669">Sends Request</text></g><!--link Backend to Database--><g id="link_Backend_Database"><path d="M72.56,210.98 C73.1,232.76 73.761,259.5919 74.301,281.3319 " fill="none" id="Backend-to-Database" style="stroke:#E7E7E7;stroke-width:1;"/><polygon fill="#E7E7E7" points="74.45,287.33,78.2253,278.2334,74.3258,282.3315,70.2278,278.4321,74.45,287.33" style="stroke:#E7E7E7;stroke-width:1;"/><text fill="#FFFFFF" font-family="sans-serif" font-size="13" lengthAdjust="spacing" textLength="85.3696" x="74" y="253.6569">Queries Data</text></g><!--SRC=[AqXCpavCJrLG2guiBadDLLAevb80WcYteloyajIyb5Y5w6ZbD1Wd5YBf1DG4aqk2ig5IBeabYKc9nQbWkHGO9vQhbeiBoKnTNJiaKwmKWe5qiK9GQc5fQd495q86h0vXf9L2O6bgKMPgiG983000]--></g></svg>